<svg xmlns="http://www.w3.org/2000/svg" version="1.1" xmlns:xlink="http://www.w3.org/1999/xlink" xmlns:svgjs="http://svgjs.com/svgjs" width="1000" height="1000"><rect width="1000" height="1000" rx="200" ry="200" fill="#555555"></rect><g transform="matrix(3.138888970630789,0,0,3.138888970630789,117.9817993661382,153.30630587736948)"><svg xmlns="http://www.w3.org/2000/svg" version="1.1" xmlns:xlink="http://www.w3.org/1999/xlink" xmlns:svgjs="http://svgjs.com/svgjs" width="254.86725" height="195.57521"><svg version="1.1" x="0px" y="0px" viewBox="0 0 254.86724 195.57521" xml:space="preserve" id="svg69" width="254.86725" height="195.57521" xmlns="http://www.w3.org/2000/svg" xmlns:svg="http://www.w3.org/2000/svg"><defs id="defs73"><rect x="164.60178" y="290.2655" width="145.13274" height="53.097343" id="rect410"></rect></defs>
<g id="Background" style="fill:none" transform="translate(-130.97345,-133.62832)">
	<rect style="fill:none" width="500" height="500" id="rect2" x="0" y="0"></rect>
</g>
<g id="Objects" transform="translate(-120.12389,-126.97345)">
	<g id="g55">
		<g id="g16">
			<linearGradient id="SVGID_1_" gradientUnits="userSpaceOnUse" x1="400.10159" y1="227.26469" x2="251.5844" y2="202.41789">
				<stop offset="0" style="stop-color:#F2F239" id="stop5"></stop>
				<stop offset="0.2096" style="stop-color:#CBE642" id="stop7"></stop>
				<stop offset="0.6752" style="stop-color:#6AC958" id="stop9"></stop>
				<stop offset="1" style="stop-color:#22B368" id="stop11"></stop>
			</linearGradient>
			<path style="fill:url(#SVGID_1_)" d="m 285.82,270.931 c -22.069,0 -41.923,-14.091 -51.223,-36.117 -0.542,-1.283 0.067,-2.761 1.369,-3.253 l 2.476,-0.936 c 1.432,-0.541 3.049,0.124 3.656,1.529 8.126,18.821 25.026,30.833 43.721,30.833 17.997,0 34.241,-11.05 42.701,-28.596 h -12.645 c -7.273,10.156 -18.362,16.154 -30.056,16.154 -21.138,0 -38.335,-19.023 -38.335,-42.407 0,-23.383 17.198,-42.406 38.335,-42.406 12.517,0 24.042,6.63 31.245,17.853 H 329.3 c -8.168,-18.328 -25.056,-30.295 -43.482,-30.295 -15.869,0 -30.873,8.932 -39.913,23.535 -1.064,1.719 -3.257,2.347 -5.042,1.397 l -0.586,-0.312 c -1.768,-0.942 -2.398,-3.185 -1.355,-4.896 10.456,-17.157 28.123,-27.668 46.896,-27.668 23.549,0 44.868,16.458 53.049,40.954 0.405,1.212 0.202,2.543 -0.544,3.58 -0.747,1.036 -1.946,1.651 -3.224,1.651 h -20.954 c -1.051,0 -1.993,-0.597 -2.499,-1.519 -5.61,-10.216 -15.305,-16.334 -25.828,-16.334 -16.758,0 -30.391,15.46 -30.391,34.462 0,19.003 13.633,34.463 30.391,34.463 9.817,0 19.158,-5.531 24.883,-14.766 0.526,-0.848 1.43,-1.389 2.428,-1.389 h 21.375 c 1.297,0 2.514,0.634 3.256,1.697 0.743,1.064 0.921,2.423 0.475,3.641 -8.709,23.78 -29.282,39.145 -52.415,39.145 z" id="path14"></path>
		</g>
		<g id="g31">
			<g id="g29">
				
					<linearGradient id="SVGID_00000134251444216430920320000001435098084622573193_" gradientUnits="userSpaceOnUse" x1="276.81989" y1="216.78529" x2="167.6436" y2="195.32651">
					<stop offset="0.1927" style="stop-color:#22B368" id="stop18"></stop>
					<stop offset="0.3502" style="stop-color:#29A680" id="stop20"></stop>
					<stop offset="0.6805" style="stop-color:#3C83BD" id="stop22"></stop>
					<stop offset="1" style="stop-color:#505FFE" id="stop24"></stop>
				</linearGradient>
				<path style="fill:url(#SVGID_00000134251444216430920320000001435098084622573193_)" d="m 242.289,272.691 h -42.546 v -91.17 h -38.816 v -35.517 h 117.291 l 0.626,7.895 c -14.181,2.262 -27.267,11.754 -33.338,24.182 -0.964,1.971 -3.341,2.788 -5.313,1.826 -1.971,-0.963 -2.788,-3.342 -1.825,-5.313 4.054,-8.298 10.735,-15.484 18.787,-20.645 h -88.282 v 19.628 h 38.816 v 91.17 h 26.655 v -31.991 c 0,-2.194 1.779,-3.972 3.973,-3.972 2.193,0 3.973,1.778 3.973,3.972 v 39.935 z" id="path27"></path>
			</g>
		</g>
		
			<linearGradient id="SVGID_00000134959760962281247980000005174419786619076015_" gradientUnits="userSpaceOnUse" x1="241.1198" y1="177.549" x2="241.1198" y2="177.549">
			<stop offset="0" style="stop-color:#F2F239" id="stop33"></stop>
			<stop offset="0.2096" style="stop-color:#CBE642" id="stop35"></stop>
			<stop offset="0.6752" style="stop-color:#6AC958" id="stop37"></stop>
			<stop offset="1" style="stop-color:#22B368" id="stop39"></stop>
		</linearGradient>
		
			<path style="fill:none;stroke:url(#SVGID_00000134959760962281247980000005174419786619076015_);stroke-width:7.9445;stroke-linecap:round;stroke-miterlimit:10" d="M 241.12,177.549" id="path42"></path>
		
			<linearGradient id="SVGID_00000021804207082170038720000017267251441201196211_" gradientUnits="userSpaceOnUse" x1="203.71519" y1="177.549" x2="203.71519" y2="177.549">
			<stop offset="0" style="stop-color:#F2F239" id="stop44"></stop>
			<stop offset="0.2096" style="stop-color:#CBE642" id="stop46"></stop>
			<stop offset="0.6752" style="stop-color:#6AC958" id="stop48"></stop>
			<stop offset="1" style="stop-color:#22B368" id="stop50"></stop>
		</linearGradient>
		
			<path style="fill:none;stroke:url(#SVGID_00000021804207082170038720000017267251441201196211_);stroke-width:7.9445;stroke-linecap:round;stroke-miterlimit:10" d="M 203.715,177.549" id="path53"></path>
	</g>
</g>
<g id="Texts" transform="translate(-112.12389,-128.97345)">
	
<text xml:space="preserve" id="text408" style="white-space:pre;shape-inside:url(#rect410);display:inline;fill:#f3ca20;stroke-width:0.6;stroke-linejoin:round;stroke-opacity:0.403846" transform="matrix(2.1360011,0,0,3.2425735,-223.49628,-682.24792)" svgjs:data="{&quot;leading&quot;:&quot;1.3&quot;}"><tspan x="164.60156" y="305.71129" id="tspan3270" svgjs:data="{&quot;leading&quot;:&quot;1.3&quot;}"><tspan style="font-size:18.2388px;font-family:'Bradley Hand ITC';-inkscape-font-specification:'Bradley Hand ITC, Normal';fill:#00ff00" id="tspan3268" svgjs:data="{&quot;leading&quot;:&quot;1.3&quot;}">TutorConnect</tspan></tspan></text></g>
</svg></svg></g></svg>